<svg width="32" height="32" viewBox="0 0 32 32" fill="none" xmlns="http://www.w3.org/2000/svg">
<g clip-path="url(#clip0_500_5625)">
<path d="M7 16.4023C7 16.6465 7.10742 16.8711 7.30273 17.0566L13.7871 23.5312C13.9824 23.7168 14.1875 23.8047 14.4219 23.8047C14.9004 23.8047 15.2812 23.4531 15.2812 22.9648C15.2812 22.7305 15.1934 22.4961 15.0371 22.3496L12.8496 20.123L8.98242 16.5977L8.77734 17.0762L11.9219 17.2715H24.2754C24.7832 17.2715 25.1348 16.9102 25.1348 16.4023C25.1348 15.8945 24.7832 15.5332 24.2754 15.5332H11.9219L8.77734 15.7285L8.98242 16.2168L12.8496 12.6816L15.0371 10.4551C15.1934 10.2988 15.2812 10.0742 15.2812 9.83984C15.2812 9.35156 14.9004 9 14.4219 9C14.1875 9 13.9824 9.07812 13.7676 9.29297L7.30273 15.7481C7.10742 15.9336 7 16.1582 7 16.4023Z" fill="black" fill-opacity="0.85"/>
</g>
<defs>
<clipPath id="clip0_500_5625">
<rect width="18.1348" height="14.8145" fill="white" transform="translate(7 9)"/>
</clipPath>
</defs>
</svg>
