<svg width="40" height="40" viewBox="0 0 40 40" fill="none" xmlns="http://www.w3.org/2000/svg">
<path d="M25.8809 8.15039C26.2122 8.15039 26.4805 8.41863 26.4805 8.75V10.5381H27.2451L27.4512 10.543C29.5645 10.6503 31.2451 12.3981 31.2451 14.5381V27.9951L31.2393 28.2012C31.1354 30.2461 29.4961 31.8854 27.4512 31.9893L27.2451 31.9951H27.2061C27.1378 31.9986 27.0691 32 27 32H12C10.1215 32 8.54587 30.7049 8.11621 28.959C8.11172 28.9408 8.10776 28.9225 8.10352 28.9043C8.07735 28.7911 8.05539 28.6762 8.03906 28.5596C8.03883 28.5579 8.03832 28.5563 8.03809 28.5547C8.01294 28.3734 8 28.1882 8 28V14.5381C8.00001 12.3981 9.68056 10.6502 11.7939 10.543L12 10.5381H12.7646V8.75C12.7646 8.41863 13.0329 8.15039 13.3643 8.15039C13.6956 8.15039 13.9639 8.41863 13.9639 8.75V10.5381H25.2812V8.75C25.2812 8.41863 25.5495 8.15039 25.8809 8.15039ZM13.5879 25.7373C12.971 25.7375 12.4709 26.2376 12.4707 26.8545C12.4707 27.4716 12.9709 27.9725 13.5879 27.9727C14.2051 27.9727 14.7061 27.4717 14.7061 26.8545C14.7059 26.2375 14.205 25.7373 13.5879 25.7373ZM19.8457 25.7373C19.2288 25.7375 18.7287 26.2376 18.7285 26.8545C18.7285 27.4716 19.2287 27.9725 19.8457 27.9727C20.4629 27.9727 20.9639 27.4717 20.9639 26.8545C20.9637 26.2375 20.4628 25.7373 19.8457 25.7373ZM13.5879 20.373C12.971 20.3732 12.4709 20.8733 12.4707 21.4902C12.4707 22.1073 12.9709 22.6082 13.5879 22.6084C14.2051 22.6084 14.7061 22.1074 14.7061 21.4902C14.7059 20.8732 14.205 20.373 13.5879 20.373ZM19.8457 20.373C19.2288 20.3732 18.7287 20.8733 18.7285 21.4902C18.7285 22.1073 19.2287 22.6082 19.8457 22.6084C20.4629 22.6084 20.9639 22.1074 20.9639 21.4902C20.9637 20.8732 20.4628 20.373 19.8457 20.373ZM26.1035 20.373C25.4866 20.3732 24.9865 20.8733 24.9863 21.4902C24.9863 22.1073 25.4865 22.6082 26.1035 22.6084C26.7207 22.6084 27.2217 22.1074 27.2217 21.4902C27.2215 20.8732 26.7206 20.373 26.1035 20.373ZM12 11.7383C10.4536 11.7383 9.2002 12.9917 9.2002 14.5381V16.1973H30.0449V14.5381C30.0449 12.9918 28.7914 11.7384 27.2451 11.7383H26.4805V13.2197C26.4805 13.5511 26.2122 13.8203 25.8809 13.8203C25.5495 13.8203 25.2812 13.5511 25.2812 13.2197V11.7383H13.9639V13.2197C13.9639 13.5511 13.6956 13.8203 13.3643 13.8203C13.0329 13.8203 12.7646 13.5511 12.7646 13.2197V11.7383H12Z" fill="white"/>
</svg>
