<svg width="40" height="40" viewBox="0 0 40 40" fill="none" xmlns="http://www.w3.org/2000/svg">
<path d="M23 9C24.1046 9 25 9.89543 25 11C25 11.9317 24.3624 12.7124 23.5 12.9346V18.1191C24.5564 18.4036 25.3627 18.6556 26.3535 19.6465C26.7603 20.0533 27.2181 20.2203 27.6836 20.21C28.1597 20.1993 28.684 20.0014 29.1934 19.6055C29.4114 19.436 29.7251 19.4753 29.8945 19.6934C30.064 19.9114 30.0247 20.2251 29.8066 20.3945C29.168 20.8909 28.4419 21.1936 27.7051 21.21C26.9578 21.2264 26.2396 20.9466 25.6465 20.3535C24.9147 19.6217 24.3581 19.3975 23.5 19.1562V28.0654C24.3623 28.2877 25 29.0683 25 30C25 31.0357 24.2128 31.887 23.2041 31.9893L23 32H13L12.7959 31.9893C11.7872 31.887 11 31.0357 11 30C11 28.8954 11.8954 28 13 28V13L12.7959 12.9893C11.7872 12.887 11 12.0357 11 11C11 9.89543 11.8954 9 13 9H23ZM13 29C12.4477 29 12 29.4477 12 30C12 30.5523 12.4477 31 13 31H23C23.5523 31 24 30.5523 24 30C24 29.4477 23.5523 29 23 29H13ZM14 28H22.5V27.9531C18.9767 27.6221 16.8817 27.2502 14 26.2158V28ZM14 25.1514C16.9328 26.2338 18.9535 26.6118 22.5 26.9482V25.5107C20.3873 25.5551 18.8011 25.4609 17.4141 25.1602C16.1798 24.8925 15.1214 24.4642 14 23.8564V25.1514ZM14 22.7109C15.2511 23.4344 16.3382 23.9034 17.626 24.1826C18.9088 24.4607 20.4123 24.5544 22.5 24.5098V21.5469C20.7845 21.6913 19.397 21.6617 18.0371 21.4326C16.7357 21.2133 15.4777 20.8149 14 20.2373V22.7109ZM22.5 17.7266C20.9524 18.3002 19.6564 18.6588 18.3467 18.8574C16.9924 19.0628 15.6401 19.0919 14 19.0225V19.1611C15.6124 19.8072 16.8946 20.2268 18.2031 20.4473C19.4806 20.6625 20.8031 20.6907 22.5 20.543V17.7266ZM22.5 13.0605C19.7964 14.4445 17.1774 15.4298 14 15.0713V18.0225C15.6248 18.0928 16.9182 18.0631 18.1973 17.8691C19.5146 17.6694 20.8345 17.2909 22.5 16.6543V13.0605ZM14 14.0654C16.2876 14.3473 18.2691 13.8712 20.2979 13H14V14.0654ZM13 10C12.4477 10 12 10.4477 12 11C12 11.5523 12.4477 12 13 12H23C23.5523 12 24 11.5523 24 11C24 10.4477 23.5523 10 23 10H13Z" fill="#CCCCCC"/>
</svg>
