<svg width="40" height="40" viewBox="0 0 40 40" fill="none" xmlns="http://www.w3.org/2000/svg">
<path d="M20.0001 20.1377C22.9891 20.1378 25.8563 21.3249 27.9699 23.4385C29.4273 24.8959 30.4447 26.7119 30.9357 28.6787C31.3044 30.1557 30.0361 31.408 28.5138 31.4082H11.4865L11.2042 31.3945C9.81181 31.2516 8.71891 30.0636 9.06459 28.6787C9.55564 26.7119 10.573 24.8959 12.0304 23.4385C14.144 21.325 17.0112 20.1377 20.0001 20.1377ZM20.0001 21.2773C17.3135 21.2774 14.7369 22.3454 12.8371 24.2451C11.5271 25.5551 10.6124 27.1871 10.171 28.9551C10.0885 29.2859 10.1779 29.5808 10.4025 29.8232C10.6409 30.0805 11.0323 30.2686 11.4865 30.2686H28.5138C28.9678 30.2685 29.3595 30.0805 29.5978 29.8232C29.8222 29.5809 29.9118 29.2857 29.8292 28.9551C29.3879 27.1871 28.4732 25.5552 27.1632 24.2451C25.2635 22.3454 22.6867 21.2774 20.0001 21.2773ZM20.2677 8.00684C23.0161 8.14629 25.2013 10.4191 25.2013 13.2021L25.1945 13.4697C25.0551 16.2181 22.783 18.4041 20.0001 18.4043L19.7326 18.3975C17.0727 18.2627 14.9397 16.1296 14.8048 13.4697L14.798 13.2021C14.798 10.3293 17.1274 8.00014 20.0001 8L20.2677 8.00684ZM20.0001 9.13965C17.757 9.13979 15.9376 10.9589 15.9376 13.2021C15.9378 15.4453 17.7571 17.2635 20.0001 17.2637C22.2431 17.2635 24.0615 15.4453 24.0617 13.2021C24.0617 10.9589 22.2432 9.13984 20.0001 9.13965Z" fill="#CCCCCC"/>
</svg>
