<svg width="40" height="40" viewBox="0 0 40 40" fill="none" xmlns="http://www.w3.org/2000/svg">
<path d="M25.8809 8.15039C26.2121 8.15044 26.4803 8.41882 26.4805 8.75V10.5381H27.2451L27.4512 10.543C29.5645 10.6503 31.2451 12.3981 31.2451 14.5381V27.9951L31.2393 28.2012C31.1354 30.2461 29.4961 31.8854 27.4512 31.9893L27.2451 31.9951H12L11.7939 31.9893C9.74888 31.8855 8.10875 30.2462 8.00488 28.2012L8 27.9951V14.5381C8.00001 12.3981 9.68056 10.6502 11.7939 10.543L12 10.5381H12.7646V8.75C12.7648 8.41879 13.033 8.15039 13.3643 8.15039C13.6955 8.15039 13.9637 8.41879 13.9639 8.75V10.5381H25.2812V8.75C25.2814 8.41879 25.5496 8.15039 25.8809 8.15039ZM9.2002 27.9951C9.2003 29.5414 10.4537 30.7949 12 30.7949H27.2451C28.7914 30.7948 30.0448 29.5414 30.0449 27.9951V17.3965H9.2002V27.9951ZM13.5879 25.7373C14.205 25.7374 14.7051 26.2374 14.7051 26.8545C14.7051 27.4716 14.205 27.9716 13.5879 27.9717C12.9707 27.9717 12.4697 27.4717 12.4697 26.8545C12.4697 26.2373 12.9707 25.7373 13.5879 25.7373ZM19.8457 25.7373C20.4629 25.7373 20.9638 26.2373 20.9639 26.8545C20.9639 27.4717 20.4629 27.9717 19.8457 27.9717C19.2287 27.9715 18.7285 27.4716 18.7285 26.8545C18.7285 26.2374 19.2287 25.7375 19.8457 25.7373ZM13.5879 20.373C14.205 20.3732 14.7051 20.8731 14.7051 21.4902C14.7051 22.1074 14.205 22.6073 13.5879 22.6074C12.9707 22.6074 12.4697 22.1074 12.4697 21.4902C12.4697 20.873 12.9707 20.373 13.5879 20.373ZM19.8457 20.373C20.4629 20.373 20.9638 20.873 20.9639 21.4902C20.9639 22.1074 20.4629 22.6074 19.8457 22.6074C19.2287 22.6072 18.7285 22.1073 18.7285 21.4902C18.7285 20.8732 19.2287 20.3732 19.8457 20.373ZM26.1045 20.373C26.7215 20.3732 27.2217 20.8732 27.2217 21.4902C27.2217 22.1073 26.7216 22.6073 26.1045 22.6074C25.4873 22.6074 24.9863 22.1074 24.9863 21.4902C24.9863 20.873 25.4873 20.373 26.1045 20.373ZM12 11.7383C10.4536 11.7383 9.2002 12.9917 9.2002 14.5381V16.1973H30.0449V14.5381C30.0449 12.9918 28.7914 11.7384 27.2451 11.7383H26.4805V13.2197C26.4805 13.5511 26.2122 13.8203 25.8809 13.8203C25.5495 13.8203 25.2812 13.5511 25.2812 13.2197V11.7383H13.9639V13.2197C13.9639 13.5511 13.6956 13.8203 13.3643 13.8203C13.0329 13.8203 12.7646 13.5511 12.7646 13.2197V11.7383H12Z" fill="#CCCCCC"/>
</svg>
