<svg width="12" height="9" viewBox="0 0 12 9" fill="none" xmlns="http://www.w3.org/2000/svg">
<g clip-path="url(#clip0_175_1924)">
<path d="M6.00345 8.17871C6.17616 8.17871 6.34887 8.1096 6.46631 7.97837L11.8135 2.49996C11.9309 2.38251 12 2.23053 12 2.05781C12 1.69857 11.7305 1.42223 11.3713 1.42223C11.1986 1.42223 11.0397 1.49132 10.9223 1.60186L5.63039 7.01118H6.3696L1.07772 1.60186C0.967186 1.49132 0.808291 1.42223 0.62867 1.42223C0.26943 1.42223 0 1.69857 0 2.05781C0 2.23053 0.0690845 2.38251 0.186528 2.50686L5.53368 7.97837C5.66493 8.1096 5.82383 8.17871 6.00345 8.17871Z" fill="white"/>
</g>
<defs>
<clipPath id="clip0_175_1924">
<rect width="12" height="7.35752" fill="white" transform="translate(0 0.821243)"/>
</clipPath>
</defs>
</svg>
