<svg width="40" height="40" viewBox="0 0 40 40" fill="none" xmlns="http://www.w3.org/2000/svg">
<path d="M21.5996 29C21.931 29 22.1992 29.2682 22.1992 29.5996C22.1992 29.931 21.931 30.1992 21.5996 30.1992H20.4492V31.0996C20.4492 31.431 20.181 31.6992 19.8496 31.6992C19.5183 31.6992 19.25 31.431 19.25 31.0996V30.1992H18.0996C17.7683 30.1992 17.5 29.931 17.5 29.5996C17.5 29.2682 17.7682 29 18.0996 29H21.5996ZM22.5996 27C22.931 27 23.1992 27.2682 23.1992 27.5996C23.1992 27.931 22.931 28.1992 22.5996 28.1992H16.5996C16.2683 28.1992 16 27.931 16 27.5996C16 27.2682 16.2682 27 16.5996 27H22.5996ZM19.585 8.8125C22.2173 8.74683 25.0119 9.79851 26.1484 12.3555C26.6842 13.5609 26.8617 14.6277 26.792 15.6484C26.7229 16.6585 26.4131 17.5889 26.0293 18.5166C25.2529 20.3928 24.1775 22.2879 23.6924 25.1982C23.6442 25.4874 23.3927 25.699 23.0996 25.6992H20.1006V22.5332C20.9623 22.3106 21.5996 21.5308 21.5996 20.5996C21.5995 19.4951 20.7041 18.5997 19.5996 18.5996C18.4951 18.5997 17.5997 19.4951 17.5996 20.5996C17.5997 21.5316 18.2379 22.3123 19.1006 22.5342V25.6992H16.6006C16.3146 25.6992 16.0678 25.4973 16.0117 25.2168C15.5286 22.8016 14.3382 20.8004 13.4258 18.7148C12.5353 16.6796 11.9376 14.583 13.0635 12.3311C14.1998 10.0589 16.9605 8.87814 19.585 8.8125ZM9.33105 21.0625C9.62744 20.9143 9.98853 21.0347 10.1367 21.3311C10.2849 21.6274 10.1645 21.9885 9.86816 22.1367L7.86816 23.1367C7.57179 23.2849 7.2107 23.1645 7.0625 22.8682C6.91431 22.5718 7.03468 22.2107 7.33105 22.0625L9.33105 21.0625ZM29.0625 21.3311C29.2107 21.0347 29.5718 20.9143 29.8682 21.0625L31.8682 22.0625C32.1645 22.2107 32.2849 22.5718 32.1367 22.8682C31.9885 23.1645 31.6274 23.2849 31.3311 23.1367L29.3311 22.1367C29.0347 21.9885 28.9143 21.6274 29.0625 21.3311ZM8.59961 16C8.93098 16 9.19922 16.2682 9.19922 16.5996C9.19919 16.931 8.93096 17.1992 8.59961 17.1992H6.59961C6.26825 17.1992 6.00002 16.931 6 16.5996C6 16.2682 6.26824 16 6.59961 16H8.59961ZM32.5996 15.5C32.931 15.5 33.1992 15.7682 33.1992 16.0996C33.1992 16.431 32.931 16.6992 32.5996 16.6992H30.5996C30.2683 16.6992 30 16.431 30 16.0996C30 15.7682 30.2682 15.5 30.5996 15.5H32.5996ZM7.0625 9.33105C7.21069 9.03467 7.57178 8.91431 7.86816 9.0625L9.86816 10.0625C10.1645 10.2107 10.2849 10.5718 10.1367 10.8682C9.98852 11.1645 9.62743 11.2849 9.33105 11.1367L7.33105 10.1367C7.03468 9.98853 6.91433 9.62743 7.0625 9.33105ZM30.1758 8.17578C30.4101 7.94147 30.7891 7.94147 31.0234 8.17578C31.2577 8.4101 31.2577 8.78913 31.0234 9.02344L29.0234 11.0234C28.7891 11.2577 28.4101 11.2577 28.1758 11.0234C27.9415 10.7891 27.9415 10.4101 28.1758 10.1758L30.1758 8.17578Z" fill="white"/>
</svg>
