<svg width="42" height="42" viewBox="0 0 42 42" fill="none" xmlns="http://www.w3.org/2000/svg">
<path d="M20.6796 11.0703C21.1388 10.9659 21.5993 11.0117 22.0282 11.208L22.4003 11.3789L22.7733 11.5498C23.0686 11.6851 23.3484 11.8438 23.6102 12.0264L24.2587 12.4795C24.5511 12.6834 24.8084 12.9288 25.0282 13.2119L25.2762 13.5322L25.5243 13.8516C25.7726 14.1715 25.9418 14.5348 26.0272 14.9307L26.1132 15.3271L26.1981 15.7236C26.2603 16.0119 26.3102 16.3029 26.3485 16.5957L26.454 17.4023C26.4797 17.5997 26.4922 17.797 26.4891 17.9883L26.6864 17.9971L27.0917 18.0137C27.4731 18.0294 27.8421 18.114 28.1913 18.2676L28.5594 18.4297L28.9286 18.5928C29.3902 18.796 29.7354 19.1523 29.9169 19.6279L30.0575 19.998L30.1991 20.3672C30.3443 20.748 30.3946 21.1478 30.3544 21.5527L30.3143 21.957L30.2733 22.3623C30.2513 22.5838 30.2477 22.8053 30.2616 23.0264L30.3124 23.8369C30.3281 24.0868 30.3522 24.3376 30.3846 24.5879L30.4374 24.9922L30.4901 25.3975C30.5346 25.7399 30.5374 26.084 30.4979 26.4268L30.451 26.8311L30.4042 27.2363C30.3677 27.5525 30.3079 27.8596 30.2225 28.1553L30.1161 28.5225L30.0106 28.8887C29.8863 29.3193 29.6356 29.6862 29.2665 29.9521L28.9677 30.168L28.6688 30.3828C28.3409 30.6192 27.9681 30.7601 27.5721 30.8174L27.1727 30.875L26.7723 30.9326C26.4608 30.9777 26.1471 30.9993 25.8319 30.9971L25.0214 30.9912C24.7435 30.9892 24.4652 30.984 24.1874 30.9746L23.7831 30.96L23.3778 30.9463C23.0864 30.9364 22.7949 30.9165 22.5038 30.8857L22.0985 30.8428L21.6942 30.7998C21.476 30.7768 21.2577 30.7732 21.0399 30.7881L20.6346 30.8154L20.2294 30.8438C19.9217 30.8648 19.6133 30.8656 19.3055 30.8477L18.9012 30.8242L18.496 30.8008C18.2888 30.7887 18.0809 30.7979 17.8719 30.8291L17.0614 30.9502C16.7234 31.0008 16.3834 31.0124 16.0438 30.9844L15.6395 30.9512L15.2343 30.918C14.9053 30.8908 14.5847 30.8318 14.2753 30.7393L13.9061 30.6279L13.536 30.5176C13.0957 30.3858 12.7277 30.121 12.4677 29.7363L12.2567 29.4238L12.0448 29.1113C11.7923 28.7375 11.6786 28.3127 11.6893 27.8711L11.7001 27.4678L11.7098 27.0654C11.7152 26.8445 11.7031 26.6217 11.6737 26.3975L11.621 25.9922L11.5673 25.5869C11.5288 25.2937 11.502 24.9998 11.4872 24.7061L11.4462 23.8955C11.4305 23.5844 11.4367 23.2727 11.4637 22.9619L11.4989 22.5566L11.5341 22.1523C11.5562 21.8982 11.5717 21.6403 11.5809 21.3799L11.5956 20.9658L11.6102 20.5527C11.6293 20.014 11.8667 19.5392 12.3036 19.209L12.6268 18.9648L12.9491 18.7217C13.1687 18.5558 13.4492 18.3649 13.7382 18.2822L13.9091 18.2324L14.0809 18.1836C14.331 18.1121 14.6379 18.101 14.913 18.1035L15.3182 18.1074L15.703 18.1104L15.7079 18.0615C15.754 17.5571 15.7807 17.1888 15.7899 16.9482L15.8055 16.5508L15.8202 16.1533C15.8349 15.7735 15.9207 15.4068 16.077 15.0605L16.2401 14.7012L16.4022 14.3408C16.5382 14.0396 16.7066 13.7562 16.9061 13.4932L17.1444 13.1797L17.3817 12.8662C17.6035 12.5738 17.8708 12.3254 18.1786 12.124L18.5135 11.9053L18.8475 11.6865C19.1627 11.4804 19.5081 11.3358 19.8768 11.252L20.6796 11.0703ZM26.5126 19.9004H25.4677C25.3725 19.9004 25.2874 19.8863 25.2108 19.8643L25.16 19.8721L24.7548 19.9307C24.4558 19.9743 24.1561 20.0028 23.8563 20.0166L23.451 20.0352L23.0468 20.0547C22.7631 20.0678 22.4789 20.0743 22.1952 20.0742H21.3846C21.0817 20.0742 20.7788 20.0567 20.4764 20.0234L20.0712 19.9795L19.6669 19.9346C19.4534 19.9111 19.2402 19.9087 19.0272 19.9258L18.2167 19.9902C17.9024 20.0155 17.5877 20.0177 17.2733 19.9961L16.868 19.9678L16.4628 19.9404C16.2108 19.9231 15.9587 19.9134 15.7069 19.9111L14.8964 19.9033C14.7784 19.9023 14.6905 19.9053 14.6288 19.9102C14.5609 19.9155 14.5513 19.9211 14.576 19.9141L14.4042 19.9639L14.2606 20.0039C14.2546 20.0071 14.2466 20.0128 14.2352 20.0195C14.1909 20.0458 14.1245 20.0898 14.0341 20.1582L13.7118 20.4014L13.4081 20.6309L13.3944 21.0293L13.3798 21.4434C13.3695 21.7342 13.3519 22.023 13.327 22.3086L13.2919 22.7129L13.2567 23.1182C13.2368 23.3471 13.2325 23.5761 13.244 23.8047L13.2645 24.21L13.285 24.6143C13.2975 24.86 13.3201 25.1072 13.3524 25.3535L13.4052 25.7578L13.4579 26.1631C13.4992 26.4783 13.5164 26.7941 13.5087 27.1094L13.4989 27.5127L13.4891 27.915C13.4868 28.0092 13.5076 28.0613 13.536 28.1035L13.7479 28.416L13.9589 28.7285C13.9802 28.7601 13.9996 28.7773 14.0516 28.793L14.4218 28.9043L14.7919 29.0146C14.9752 29.0695 15.172 29.1066 15.3827 29.124L15.787 29.1572L16.1923 29.1904C16.3924 29.207 16.593 29.2011 16.7948 29.1709L17.2001 29.1104L17.6053 29.0488C17.9359 28.9994 18.2681 28.9845 18.6005 29.0039L19.411 29.0508C19.6429 29.0643 19.8753 29.0637 20.1073 29.0479L20.5116 29.0195L20.9169 28.9922C21.2389 28.9701 21.5612 28.9758 21.8827 29.0098L22.6932 29.0957C22.9419 29.1219 23.191 29.139 23.4393 29.1475L23.8436 29.1611L24.2489 29.1748C24.5108 29.1837 24.7731 29.1895 25.035 29.1914L25.4403 29.1943L25.8446 29.1973C26.0693 29.1989 26.2928 29.1835 26.5145 29.1514L26.9149 29.0938L27.3143 29.0361C27.4517 29.0163 27.5454 28.9738 27.6161 28.9229L27.9149 28.707L28.2147 28.4922C28.2442 28.4709 28.2642 28.4483 28.2811 28.3896L28.3866 28.0225L28.493 27.6553C28.5489 27.4618 28.5903 27.2537 28.6161 27.0303L28.663 26.625L28.7098 26.2207C28.7325 26.0237 28.7306 25.8263 28.705 25.6289L28.6522 25.2246L28.5995 24.8193C28.5619 24.53 28.5347 24.2399 28.5165 23.9502L28.4901 23.5449L28.4647 23.1396C28.4447 22.8213 28.4507 22.5025 28.4823 22.1846L28.5223 21.7793L28.5634 21.374C28.5767 21.2392 28.5593 21.1211 28.5165 21.0088L28.2352 20.2686C28.2312 20.2582 28.2272 20.2532 28.2264 20.252C28.2235 20.25 28.2158 20.2459 28.203 20.2402L27.8348 20.0781L27.4657 19.915C27.3237 19.8527 27.1757 19.819 27.0175 19.8125L26.6132 19.7959L26.4969 19.791L26.5126 19.9004ZM21.079 12.8252L20.6776 12.916L20.2753 13.0078C20.1089 13.0457 19.9634 13.108 19.8329 13.1934L19.4989 13.4121L19.1639 13.6309C19.0262 13.721 18.9117 13.8283 18.8163 13.9541L18.3397 14.5811C18.222 14.7363 18.1235 14.9035 18.0428 15.082L17.8807 15.4414L17.7177 15.8018C17.6575 15.935 17.6248 16.0733 17.619 16.2227L17.6034 16.6201L17.5887 17.0176C17.5778 17.3025 17.5475 17.7008 17.5018 18.2031C17.6922 18.2118 17.8828 18.2116 18.0731 18.1963L18.4774 18.1641L18.8827 18.1309C19.2095 18.1046 19.5368 18.1097 19.8632 18.1455L20.2684 18.1904L20.6727 18.2344C20.9101 18.2605 21.1478 18.2734 21.3846 18.2734H22.1952C22.4512 18.2735 22.7077 18.2677 22.9637 18.2559L23.368 18.2373L23.7733 18.2188C24.0134 18.2077 24.254 18.1845 24.495 18.1494L24.6747 18.123L24.6844 18.0605C24.6944 17.9919 24.6978 17.8568 24.6688 17.6348L24.6171 17.2324L24.5643 16.8291C24.5325 16.5851 24.4901 16.3425 24.4384 16.1025L24.3534 15.7061L24.2675 15.3096C24.2388 15.1771 24.1851 15.0616 24.1024 14.9551L23.8544 14.6357L23.6063 14.3154C23.4951 14.1721 23.3694 14.0527 23.2294 13.9551L22.9052 13.7295L22.58 13.5029C22.4095 13.3841 22.2241 13.2785 22.0233 13.1865L21.6512 13.0156L21.2782 12.8447C21.211 12.8141 21.1547 12.808 21.079 12.8252Z" fill="black"/>
</svg>
