<svg width="32" height="32" viewBox="0 0 32 32" fill="none" xmlns="http://www.w3.org/2000/svg">
<path d="M11 18C11.5523 18 12 18.4477 12 19C12 19.5523 11.5523 20 11 20H7.93945C9.41179 22.9629 12.4668 24.9999 16 25C19.9979 25 23.3846 22.3927 24.5576 18.7861C24.7051 18.3327 25.113 18 25.5898 18C26.2276 18.0001 26.7111 18.581 26.5264 19.1914C25.1588 23.7099 20.965 27 16 27C11.9459 26.9999 8.40703 24.8058 6.5 21.541V24.5C6.5 25.0523 6.05228 25.5 5.5 25.5C4.94772 25.5 4.5 25.0523 4.5 24.5V19C4.5 18.4477 4.94772 18 5.5 18H11ZM16 5C20.0538 5 23.5929 7.19364 25.5 10.458V8C25.5 7.44772 25.9477 7 26.5 7C27.0523 7 27.5 7.44772 27.5 8V13.5C27.5 14.0523 27.0523 14.5 26.5 14.5H21C20.4477 14.5 20 14.0523 20 13.5C20 12.9477 20.4477 12.5 21 12.5H24.291C22.9258 9.26834 19.7289 7 16 7C12.0022 7.00007 8.61538 9.60731 7.44238 13.2139C7.29492 13.6673 6.88699 14 6.41016 14C5.77243 13.9999 5.28892 13.419 5.47363 12.8086C6.84116 8.29009 11.035 5.00007 16 5Z" fill="black"/>
</svg>
