<svg width="11" height="11" viewBox="0 0 11 11" fill="none" xmlns="http://www.w3.org/2000/svg">
<path d="M0 5.19999C0 5.50884 0.258424 5.76096 0.560969 5.76096H4.63903V9.83899C4.63903 10.1416 4.89114 10.4 5.19999 10.4C5.50884 10.4 5.76727 10.1416 5.76727 9.83899V5.76096H9.83899C10.1416 5.76096 10.4 5.50884 10.4 5.19999C10.4 4.89114 10.1416 4.63272 9.83899 4.63272H5.76727V0.560969C5.76727 0.258424 5.50884 0 5.19999 0C4.89114 0 4.63903 0.258424 4.63903 0.560969V4.63272H0.560969C0.258424 4.63272 0 4.89114 0 5.19999Z" fill="white"/>
</svg>
