<svg width="40" height="40" viewBox="0 0 40 40" fill="none" xmlns="http://www.w3.org/2000/svg">
<path d="M23 9C24.1046 9 25 9.89543 25 11C25 11.9317 24.3624 12.7124 23.5 12.9346V18.1191C24.5564 18.4036 25.3627 18.6556 26.3535 19.6465C26.7603 20.0533 27.2181 20.2203 27.6836 20.21C28.1597 20.1993 28.684 20.0014 29.1934 19.6055C29.4114 19.436 29.7251 19.4753 29.8945 19.6934C30.064 19.9114 30.0247 20.2251 29.8066 20.3945C29.168 20.8909 28.4419 21.1936 27.7051 21.21C26.9578 21.2264 26.2396 20.9466 25.6465 20.3535C24.9147 19.6217 24.3581 19.3975 23.5 19.1562V28.0654C24.3623 28.2877 25 29.0683 25 30C25 31.0357 24.2128 31.887 23.2041 31.9893L23 32H13L12.7959 31.9893C11.7872 31.887 11 31.0357 11 30C11 28.8954 11.8954 28 13 28V13L12.7959 12.9893C11.7872 12.887 11 12.0357 11 11C11 9.89543 11.8954 9 13 9H23ZM13 29C12.4477 29 12 29.4477 12 30C12 30.5523 12.4477 31 13 31H23C23.5523 31 24 30.5523 24 30C24 29.4477 23.5523 29 23 29H13ZM14 26.2158C16.8817 27.2502 18.9768 27.622 22.5 27.9531V26.9482C18.9535 26.6117 16.9328 26.2338 14 25.1514V26.2158ZM14 23.8564C15.1214 24.4642 16.1798 24.8925 17.4141 25.1602C18.8011 25.4609 20.3873 25.5552 22.5 25.5107V24.5098C20.4123 24.5544 18.9088 24.4607 17.626 24.1826C16.3382 23.9034 15.2511 23.4344 14 22.7109V23.8564ZM14 20.2373C15.4777 20.8149 16.7357 21.2133 18.0371 21.4326C19.397 21.6617 20.7845 21.6895 22.5 21.5449V20.543C20.8031 20.6907 19.4806 20.6625 18.2031 20.4473C16.8946 20.2268 15.6124 19.8072 14 19.1611V20.2373ZM22.5 16.6543C20.8345 17.2909 19.5146 17.6694 18.1973 17.8691C16.9182 18.0631 15.6248 18.0928 14 18.0225V19.0225C15.6401 19.0919 16.9924 19.0628 18.3467 18.8574C19.6567 18.6588 20.9519 18.2968 22.5 17.7227V16.6543ZM20.2979 13C18.2691 13.8712 16.2876 14.3473 14 14.0654V15.0713C17.1775 15.4299 19.7963 14.4436 22.5 13.0596V13H20.2979ZM13 10C12.4477 10 12 10.4477 12 11C12 11.5523 12.4477 12 13 12H23C23.5523 12 24 11.5523 24 11C24 10.4477 23.5523 10 23 10H13Z" fill="white"/>
</svg>
