<svg width="40" height="40" viewBox="0 0 40 40" fill="none" xmlns="http://www.w3.org/2000/svg">
<path d="M20.0001 20.1377C22.9891 20.1378 25.8553 21.3258 27.9689 23.4395C29.4264 24.897 30.4437 26.7127 30.9347 28.6797C31.3033 30.1567 30.0362 31.4091 28.5138 31.4092H11.4855C9.96331 31.4089 8.69613 30.1566 9.06459 28.6797C9.55557 26.7127 10.5729 24.897 12.0304 23.4395C14.144 21.3258 17.011 20.1377 20.0001 20.1377ZM20.0001 8C22.873 8.00005 25.2023 10.3292 25.2023 13.2021C25.2022 16.075 22.8729 18.4042 20.0001 18.4043C17.1273 18.4043 14.7981 16.075 14.798 13.2021C14.798 10.3292 17.1273 8 20.0001 8Z" fill="white"/>
</svg>
